<mxfile host="app.diagrams.net" modified="2023-10-11T14:04:19.673Z" agent="Mozilla/5.0 (Windows NT 10.0; Win64; x64) AppleWebKit/537.36 (KHTML, like Gecko) Chrome/114.0.0.0 YaBrowser/23.7.5.704 Yowser/2.5 Safari/537.36" etag="4I8gaceHpwW-0E2lCFUp" version="22.0.4" type="device">
  <diagram id="C5RBs43oDa-KdzZeNtuy" name="Page-1">
    <mxGraphModel dx="1072" dy="479" grid="1" gridSize="10" guides="1" tooltips="1" connect="1" arrows="1" fold="1" page="1" pageScale="1" pageWidth="827" pageHeight="1169" math="0" shadow="0">
      <root>
        <mxCell id="WIyWlLk6GJQsqaUBKTNV-0" />
        <mxCell id="WIyWlLk6GJQsqaUBKTNV-1" parent="WIyWlLk6GJQsqaUBKTNV-0" />
        <mxCell id="FuKG38PKDAhsyLK60NjX-0" value="НАЧАЛО" style="rounded=1;whiteSpace=wrap;html=1;" parent="WIyWlLk6GJQsqaUBKTNV-1" vertex="1">
          <mxGeometry x="360" y="70" width="120" height="60" as="geometry" />
        </mxCell>
        <mxCell id="FuKG38PKDAhsyLK60NjX-1" value="&lt;b&gt;&lt;font style=&quot;font-size: 17px;&quot;&gt;Создание события для календаря событий&lt;/font&gt;&lt;/b&gt;" style="text;html=1;align=center;verticalAlign=middle;resizable=0;points=[];autosize=1;strokeColor=none;fillColor=none;" parent="WIyWlLk6GJQsqaUBKTNV-1" vertex="1">
          <mxGeometry x="205" y="28" width="390" height="30" as="geometry" />
        </mxCell>
        <mxCell id="FuKG38PKDAhsyLK60NjX-2" value="" style="endArrow=classic;html=1;rounded=0;" parent="WIyWlLk6GJQsqaUBKTNV-1" edge="1">
          <mxGeometry width="50" height="50" relative="1" as="geometry">
            <mxPoint x="419.5" y="130" as="sourcePoint" />
            <mxPoint x="419.5" y="170" as="targetPoint" />
          </mxGeometry>
        </mxCell>
        <mxCell id="FuKG38PKDAhsyLK60NjX-5" value="" style="edgeStyle=orthogonalEdgeStyle;rounded=0;orthogonalLoop=1;jettySize=auto;html=1;" parent="WIyWlLk6GJQsqaUBKTNV-1" source="FuKG38PKDAhsyLK60NjX-3" edge="1">
          <mxGeometry relative="1" as="geometry">
            <mxPoint x="300" y="240" as="targetPoint" />
          </mxGeometry>
        </mxCell>
        <mxCell id="FuKG38PKDAhsyLK60NjX-3" value="Ввод наименования события через текстовое поле" style="rounded=0;whiteSpace=wrap;html=1;" parent="WIyWlLk6GJQsqaUBKTNV-1" vertex="1">
          <mxGeometry x="160" y="170" width="280" height="40" as="geometry" />
        </mxCell>
        <mxCell id="FuKG38PKDAhsyLK60NjX-4" value="Выбор из списка участников" style="whiteSpace=wrap;html=1;rounded=0;" parent="WIyWlLk6GJQsqaUBKTNV-1" vertex="1">
          <mxGeometry x="160" y="240" width="280" height="40" as="geometry" />
        </mxCell>
        <mxCell id="FuKG38PKDAhsyLK60NjX-7" value="" style="edgeStyle=orthogonalEdgeStyle;rounded=0;orthogonalLoop=1;jettySize=auto;html=1;" parent="WIyWlLk6GJQsqaUBKTNV-1" edge="1">
          <mxGeometry relative="1" as="geometry">
            <mxPoint x="200" y="280" as="sourcePoint" />
            <mxPoint x="200" y="310" as="targetPoint" />
          </mxGeometry>
        </mxCell>
        <mxCell id="FuKG38PKDAhsyLK60NjX-8" value="" style="edgeStyle=orthogonalEdgeStyle;rounded=0;orthogonalLoop=1;jettySize=auto;html=1;" parent="WIyWlLk6GJQsqaUBKTNV-1" edge="1">
          <mxGeometry relative="1" as="geometry">
            <mxPoint x="360" y="280" as="sourcePoint" />
            <mxPoint x="360" y="310" as="targetPoint" />
          </mxGeometry>
        </mxCell>
        <mxCell id="FuKG38PKDAhsyLK60NjX-11" value="Выбор из конечного списка всех сотрудников" style="rounded=0;whiteSpace=wrap;html=1;" parent="WIyWlLk6GJQsqaUBKTNV-1" vertex="1">
          <mxGeometry x="80" y="310" width="160" height="40" as="geometry" />
        </mxCell>
        <mxCell id="FuKG38PKDAhsyLK60NjX-12" value="Выбор из конечного списка одного или нескольких подразделений" style="rounded=0;whiteSpace=wrap;html=1;" parent="WIyWlLk6GJQsqaUBKTNV-1" vertex="1">
          <mxGeometry x="320" y="310" width="200" height="40" as="geometry" />
        </mxCell>
        <mxCell id="FuKG38PKDAhsyLK60NjX-13" value="" style="endArrow=classic;html=1;rounded=0;" parent="WIyWlLk6GJQsqaUBKTNV-1" edge="1">
          <mxGeometry width="50" height="50" relative="1" as="geometry">
            <mxPoint x="200" y="350" as="sourcePoint" />
            <mxPoint x="200" y="390" as="targetPoint" />
          </mxGeometry>
        </mxCell>
        <mxCell id="FuKG38PKDAhsyLK60NjX-14" value="" style="endArrow=classic;html=1;rounded=0;" parent="WIyWlLk6GJQsqaUBKTNV-1" edge="1">
          <mxGeometry width="50" height="50" relative="1" as="geometry">
            <mxPoint x="419.5" y="350" as="sourcePoint" />
            <mxPoint x="419.5" y="390" as="targetPoint" />
          </mxGeometry>
        </mxCell>
        <mxCell id="FuKG38PKDAhsyLK60NjX-15" value="Выбор категории события из списка" style="rounded=0;whiteSpace=wrap;html=1;" parent="WIyWlLk6GJQsqaUBKTNV-1" vertex="1">
          <mxGeometry x="160" y="390" width="280" height="40" as="geometry" />
        </mxCell>
        <mxCell id="FuKG38PKDAhsyLK60NjX-17" value="" style="endArrow=classic;html=1;rounded=0;" parent="WIyWlLk6GJQsqaUBKTNV-1" edge="1">
          <mxGeometry width="50" height="50" relative="1" as="geometry">
            <mxPoint x="299.5" y="430" as="sourcePoint" />
            <mxPoint x="299.5" y="470" as="targetPoint" />
          </mxGeometry>
        </mxCell>
        <mxCell id="FuKG38PKDAhsyLK60NjX-18" value="Выбор часового пояса из списка" style="rounded=0;whiteSpace=wrap;html=1;" parent="WIyWlLk6GJQsqaUBKTNV-1" vertex="1">
          <mxGeometry x="160" y="470" width="280" height="40" as="geometry" />
        </mxCell>
        <mxCell id="FuKG38PKDAhsyLK60NjX-19" value="Ввод ссылки или места проведения через текстовое поле" style="rounded=0;whiteSpace=wrap;html=1;" parent="WIyWlLk6GJQsqaUBKTNV-1" vertex="1">
          <mxGeometry x="160" y="545" width="280" height="40" as="geometry" />
        </mxCell>
        <mxCell id="FuKG38PKDAhsyLK60NjX-20" value="" style="endArrow=classic;html=1;rounded=0;" parent="WIyWlLk6GJQsqaUBKTNV-1" edge="1">
          <mxGeometry width="50" height="50" relative="1" as="geometry">
            <mxPoint x="299.5" y="510" as="sourcePoint" />
            <mxPoint x="299.5" y="550" as="targetPoint" />
          </mxGeometry>
        </mxCell>
        <mxCell id="FuKG38PKDAhsyLK60NjX-21" value="" style="endArrow=classic;html=1;rounded=0;entryX=0.5;entryY=0;entryDx=0;entryDy=0;" parent="WIyWlLk6GJQsqaUBKTNV-1" target="FuKG38PKDAhsyLK60NjX-22" edge="1">
          <mxGeometry width="50" height="50" relative="1" as="geometry">
            <mxPoint x="299.5" y="585" as="sourcePoint" />
            <mxPoint x="300" y="610" as="targetPoint" />
          </mxGeometry>
        </mxCell>
        <mxCell id="FuKG38PKDAhsyLK60NjX-22" value="Ввод описания события через текстовое поле" style="rounded=0;whiteSpace=wrap;html=1;" parent="WIyWlLk6GJQsqaUBKTNV-1" vertex="1">
          <mxGeometry x="160" y="620" width="280" height="40" as="geometry" />
        </mxCell>
        <mxCell id="FuKG38PKDAhsyLK60NjX-23" value="" style="endArrow=classic;html=1;rounded=0;entryX=0.5;entryY=0;entryDx=0;entryDy=0;" parent="WIyWlLk6GJQsqaUBKTNV-1" target="FuKG38PKDAhsyLK60NjX-24" edge="1">
          <mxGeometry width="50" height="50" relative="1" as="geometry">
            <mxPoint x="299.5" y="660" as="sourcePoint" />
            <mxPoint x="300" y="695" as="targetPoint" />
          </mxGeometry>
        </mxCell>
        <mxCell id="FuKG38PKDAhsyLK60NjX-24" value="Выбор даты и времени события" style="rounded=0;whiteSpace=wrap;html=1;" parent="WIyWlLk6GJQsqaUBKTNV-1" vertex="1">
          <mxGeometry x="160" y="690" width="280" height="40" as="geometry" />
        </mxCell>
        <mxCell id="FuKG38PKDAhsyLK60NjX-27" value="" style="endArrow=classic;html=1;rounded=0;entryX=0.5;entryY=0;entryDx=0;entryDy=0;" parent="WIyWlLk6GJQsqaUBKTNV-1" edge="1">
          <mxGeometry width="50" height="50" relative="1" as="geometry">
            <mxPoint x="200" y="730" as="sourcePoint" />
            <mxPoint x="200.5" y="760" as="targetPoint" />
          </mxGeometry>
        </mxCell>
        <mxCell id="FuKG38PKDAhsyLK60NjX-28" value="Установка или снятие флажка ВЕСЬ ДЕНЬ" style="rounded=0;whiteSpace=wrap;html=1;" parent="WIyWlLk6GJQsqaUBKTNV-1" vertex="1">
          <mxGeometry x="160" y="760" width="120" height="60" as="geometry" />
        </mxCell>
        <mxCell id="FuKG38PKDAhsyLK60NjX-30" value="" style="endArrow=classic;html=1;rounded=0;" parent="WIyWlLk6GJQsqaUBKTNV-1" edge="1">
          <mxGeometry width="50" height="50" relative="1" as="geometry">
            <mxPoint x="360" y="730" as="sourcePoint" />
            <mxPoint x="360" y="840" as="targetPoint" />
          </mxGeometry>
        </mxCell>
        <mxCell id="FuKG38PKDAhsyLK60NjX-31" value="Выбрать из списка период повторения" style="rounded=0;whiteSpace=wrap;html=1;" parent="WIyWlLk6GJQsqaUBKTNV-1" vertex="1">
          <mxGeometry x="160" y="840" width="280" height="40" as="geometry" />
        </mxCell>
        <mxCell id="FuKG38PKDAhsyLK60NjX-32" value="" style="endArrow=classic;html=1;rounded=0;" parent="WIyWlLk6GJQsqaUBKTNV-1" edge="1">
          <mxGeometry width="50" height="50" relative="1" as="geometry">
            <mxPoint x="200" y="820" as="sourcePoint" />
            <mxPoint x="200" y="840" as="targetPoint" />
          </mxGeometry>
        </mxCell>
        <mxCell id="FuKG38PKDAhsyLK60NjX-33" value="Установка или снятие флажка УВЕДОМИТЬ О СОБЫТИИ" style="rounded=0;whiteSpace=wrap;html=1;" parent="WIyWlLk6GJQsqaUBKTNV-1" vertex="1">
          <mxGeometry x="160" y="900" width="120" height="60" as="geometry" />
        </mxCell>
        <mxCell id="FuKG38PKDAhsyLK60NjX-34" value="" style="endArrow=classic;html=1;rounded=0;" parent="WIyWlLk6GJQsqaUBKTNV-1" edge="1">
          <mxGeometry width="50" height="50" relative="1" as="geometry">
            <mxPoint x="200" y="880" as="sourcePoint" />
            <mxPoint x="200" y="900" as="targetPoint" />
          </mxGeometry>
        </mxCell>
        <mxCell id="FuKG38PKDAhsyLK60NjX-35" value="" style="endArrow=classic;html=1;rounded=0;" parent="WIyWlLk6GJQsqaUBKTNV-1" edge="1">
          <mxGeometry width="50" height="50" relative="1" as="geometry">
            <mxPoint x="160" y="929.5" as="sourcePoint" />
            <mxPoint x="110" y="929.5" as="targetPoint" />
          </mxGeometry>
        </mxCell>
        <mxCell id="FuKG38PKDAhsyLK60NjX-36" value="Отправка уведомления всем сотрудникам компании" style="rounded=0;whiteSpace=wrap;html=1;" parent="WIyWlLk6GJQsqaUBKTNV-1" vertex="1">
          <mxGeometry x="10" y="910" width="100" height="80" as="geometry" />
        </mxCell>
        <mxCell id="FuKG38PKDAhsyLK60NjX-37" value="" style="endArrow=classic;html=1;rounded=0;entryX=0.5;entryY=0;entryDx=0;entryDy=0;" parent="WIyWlLk6GJQsqaUBKTNV-1" edge="1">
          <mxGeometry width="50" height="50" relative="1" as="geometry">
            <mxPoint x="200" y="960" as="sourcePoint" />
            <mxPoint x="200.5" y="990" as="targetPoint" />
          </mxGeometry>
        </mxCell>
        <mxCell id="FuKG38PKDAhsyLK60NjX-38" value="" style="endArrow=classic;html=1;rounded=0;" parent="WIyWlLk6GJQsqaUBKTNV-1" edge="1">
          <mxGeometry width="50" height="50" relative="1" as="geometry">
            <mxPoint x="360" y="880" as="sourcePoint" />
            <mxPoint x="361" y="990" as="targetPoint" />
          </mxGeometry>
        </mxCell>
        <mxCell id="FuKG38PKDAhsyLK60NjX-40" value="СОХРАНИТЬ" style="rounded=0;whiteSpace=wrap;html=1;" parent="WIyWlLk6GJQsqaUBKTNV-1" vertex="1">
          <mxGeometry x="160" y="990" width="280" height="40" as="geometry" />
        </mxCell>
        <mxCell id="FuKG38PKDAhsyLK60NjX-41" value="" style="endArrow=classic;html=1;rounded=0;" parent="WIyWlLk6GJQsqaUBKTNV-1" edge="1">
          <mxGeometry width="50" height="50" relative="1" as="geometry">
            <mxPoint x="280" y="1030" as="sourcePoint" />
            <mxPoint x="280" y="1060" as="targetPoint" />
          </mxGeometry>
        </mxCell>
        <mxCell id="FuKG38PKDAhsyLK60NjX-42" value="Событие отображается в общем перечне созданных событий" style="rounded=0;whiteSpace=wrap;html=1;" parent="WIyWlLk6GJQsqaUBKTNV-1" vertex="1">
          <mxGeometry x="160" y="1060" width="280" height="40" as="geometry" />
        </mxCell>
        <mxCell id="FuKG38PKDAhsyLK60NjX-44" value="КОНЕЦ" style="rounded=1;whiteSpace=wrap;html=1;" parent="WIyWlLk6GJQsqaUBKTNV-1" vertex="1">
          <mxGeometry x="220" y="1110" width="120" height="50" as="geometry" />
        </mxCell>
        <mxCell id="FuKG38PKDAhsyLK60NjX-45" value="" style="endArrow=classic;html=1;rounded=0;" parent="WIyWlLk6GJQsqaUBKTNV-1" edge="1">
          <mxGeometry width="50" height="50" relative="1" as="geometry">
            <mxPoint x="280" y="1100" as="sourcePoint" />
            <mxPoint x="280" y="1110" as="targetPoint" />
          </mxGeometry>
        </mxCell>
        <mxCell id="FuKG38PKDAhsyLK60NjX-48" value="" style="endArrow=none;html=1;rounded=0;" parent="WIyWlLk6GJQsqaUBKTNV-1" edge="1">
          <mxGeometry width="50" height="50" relative="1" as="geometry">
            <mxPoint x="680" y="190" as="sourcePoint" />
            <mxPoint x="440" y="189.5" as="targetPoint" />
          </mxGeometry>
        </mxCell>
        <mxCell id="FuKG38PKDAhsyLK60NjX-49" value="" style="endArrow=none;html=1;rounded=0;" parent="WIyWlLk6GJQsqaUBKTNV-1" edge="1">
          <mxGeometry width="50" height="50" relative="1" as="geometry">
            <mxPoint x="680" y="260" as="sourcePoint" />
            <mxPoint x="440" y="259.5" as="targetPoint" />
          </mxGeometry>
        </mxCell>
        <mxCell id="FuKG38PKDAhsyLK60NjX-50" value="" style="endArrow=none;html=1;rounded=0;" parent="WIyWlLk6GJQsqaUBKTNV-1" edge="1">
          <mxGeometry width="50" height="50" relative="1" as="geometry">
            <mxPoint x="680" y="410" as="sourcePoint" />
            <mxPoint x="440" y="409.5" as="targetPoint" />
          </mxGeometry>
        </mxCell>
        <mxCell id="FuKG38PKDAhsyLK60NjX-51" value="" style="endArrow=none;html=1;rounded=0;" parent="WIyWlLk6GJQsqaUBKTNV-1" edge="1">
          <mxGeometry width="50" height="50" relative="1" as="geometry">
            <mxPoint x="680" y="490" as="sourcePoint" />
            <mxPoint x="440" y="489.5" as="targetPoint" />
          </mxGeometry>
        </mxCell>
        <mxCell id="FuKG38PKDAhsyLK60NjX-52" value="" style="endArrow=none;html=1;rounded=0;" parent="WIyWlLk6GJQsqaUBKTNV-1" edge="1">
          <mxGeometry width="50" height="50" relative="1" as="geometry">
            <mxPoint x="680" y="565" as="sourcePoint" />
            <mxPoint x="440" y="564.5" as="targetPoint" />
          </mxGeometry>
        </mxCell>
        <mxCell id="FuKG38PKDAhsyLK60NjX-53" value="" style="endArrow=none;html=1;rounded=0;" parent="WIyWlLk6GJQsqaUBKTNV-1" edge="1">
          <mxGeometry width="50" height="50" relative="1" as="geometry">
            <mxPoint x="680" y="640" as="sourcePoint" />
            <mxPoint x="440" y="639.5" as="targetPoint" />
          </mxGeometry>
        </mxCell>
        <mxCell id="FuKG38PKDAhsyLK60NjX-54" value="" style="endArrow=none;html=1;rounded=0;" parent="WIyWlLk6GJQsqaUBKTNV-1" edge="1">
          <mxGeometry width="50" height="50" relative="1" as="geometry">
            <mxPoint x="680" y="710" as="sourcePoint" />
            <mxPoint x="440" y="709.5" as="targetPoint" />
          </mxGeometry>
        </mxCell>
        <mxCell id="FuKG38PKDAhsyLK60NjX-55" value="" style="endArrow=none;html=1;rounded=0;" parent="WIyWlLk6GJQsqaUBKTNV-1" edge="1">
          <mxGeometry width="50" height="50" relative="1" as="geometry">
            <mxPoint x="680" y="860" as="sourcePoint" />
            <mxPoint x="440" y="859.5" as="targetPoint" />
          </mxGeometry>
        </mxCell>
        <mxCell id="FuKG38PKDAhsyLK60NjX-56" value="не заполнено" style="text;html=1;align=center;verticalAlign=middle;resizable=0;points=[];autosize=1;strokeColor=none;fillColor=none;" parent="WIyWlLk6GJQsqaUBKTNV-1" vertex="1">
          <mxGeometry x="460" y="158" width="100" height="30" as="geometry" />
        </mxCell>
        <mxCell id="FuKG38PKDAhsyLK60NjX-57" value="не заполнено" style="text;html=1;align=center;verticalAlign=middle;resizable=0;points=[];autosize=1;strokeColor=none;fillColor=none;" parent="WIyWlLk6GJQsqaUBKTNV-1" vertex="1">
          <mxGeometry x="460" y="230" width="100" height="30" as="geometry" />
        </mxCell>
        <mxCell id="FuKG38PKDAhsyLK60NjX-58" value="не заполнено" style="text;html=1;align=center;verticalAlign=middle;resizable=0;points=[];autosize=1;strokeColor=none;fillColor=none;" parent="WIyWlLk6GJQsqaUBKTNV-1" vertex="1">
          <mxGeometry x="460" y="380" width="100" height="30" as="geometry" />
        </mxCell>
        <mxCell id="FuKG38PKDAhsyLK60NjX-59" value="не заполнено" style="text;html=1;align=center;verticalAlign=middle;resizable=0;points=[];autosize=1;strokeColor=none;fillColor=none;" parent="WIyWlLk6GJQsqaUBKTNV-1" vertex="1">
          <mxGeometry x="470" y="460" width="100" height="30" as="geometry" />
        </mxCell>
        <mxCell id="FuKG38PKDAhsyLK60NjX-60" value="не заполнено" style="text;html=1;align=center;verticalAlign=middle;resizable=0;points=[];autosize=1;strokeColor=none;fillColor=none;" parent="WIyWlLk6GJQsqaUBKTNV-1" vertex="1">
          <mxGeometry x="470" y="540" width="100" height="30" as="geometry" />
        </mxCell>
        <mxCell id="FuKG38PKDAhsyLK60NjX-61" value="не заполнено" style="text;html=1;align=center;verticalAlign=middle;resizable=0;points=[];autosize=1;strokeColor=none;fillColor=none;" parent="WIyWlLk6GJQsqaUBKTNV-1" vertex="1">
          <mxGeometry x="470" y="610" width="100" height="30" as="geometry" />
        </mxCell>
        <mxCell id="FuKG38PKDAhsyLK60NjX-62" value="не заполнено" style="text;html=1;align=center;verticalAlign=middle;resizable=0;points=[];autosize=1;strokeColor=none;fillColor=none;" parent="WIyWlLk6GJQsqaUBKTNV-1" vertex="1">
          <mxGeometry x="470" y="680" width="100" height="30" as="geometry" />
        </mxCell>
        <mxCell id="FuKG38PKDAhsyLK60NjX-63" value="не заполнено" style="text;html=1;align=center;verticalAlign=middle;resizable=0;points=[];autosize=1;strokeColor=none;fillColor=none;" parent="WIyWlLk6GJQsqaUBKTNV-1" vertex="1">
          <mxGeometry x="470" y="830" width="100" height="30" as="geometry" />
        </mxCell>
        <mxCell id="FuKG38PKDAhsyLK60NjX-64" value="" style="endArrow=none;html=1;rounded=0;" parent="WIyWlLk6GJQsqaUBKTNV-1" edge="1">
          <mxGeometry width="50" height="50" relative="1" as="geometry">
            <mxPoint x="680" y="880" as="sourcePoint" />
            <mxPoint x="680" y="190" as="targetPoint" />
          </mxGeometry>
        </mxCell>
        <mxCell id="FuKG38PKDAhsyLK60NjX-65" value="" style="endArrow=classic;html=1;rounded=0;" parent="WIyWlLk6GJQsqaUBKTNV-1" edge="1">
          <mxGeometry width="50" height="50" relative="1" as="geometry">
            <mxPoint x="680" y="880" as="sourcePoint" />
            <mxPoint x="680" y="900" as="targetPoint" />
          </mxGeometry>
        </mxCell>
        <mxCell id="FuKG38PKDAhsyLK60NjX-66" value="СОХРАНИТЬ" style="rounded=0;whiteSpace=wrap;html=1;" parent="WIyWlLk6GJQsqaUBKTNV-1" vertex="1">
          <mxGeometry x="610" y="900" width="140" height="40" as="geometry" />
        </mxCell>
        <mxCell id="FuKG38PKDAhsyLK60NjX-67" value="" style="endArrow=classic;html=1;rounded=0;" parent="WIyWlLk6GJQsqaUBKTNV-1" edge="1">
          <mxGeometry width="50" height="50" relative="1" as="geometry">
            <mxPoint x="679.5" y="940" as="sourcePoint" />
            <mxPoint x="680" y="960" as="targetPoint" />
          </mxGeometry>
        </mxCell>
        <mxCell id="FuKG38PKDAhsyLK60NjX-68" value="ОШИБКА&lt;br&gt;не заполнены обязательные поля" style="rounded=0;whiteSpace=wrap;html=1;" parent="WIyWlLk6GJQsqaUBKTNV-1" vertex="1">
          <mxGeometry x="610" y="960" width="140" height="50" as="geometry" />
        </mxCell>
        <mxCell id="FuKG38PKDAhsyLK60NjX-69" value="" style="endArrow=classic;html=1;rounded=0;" parent="WIyWlLk6GJQsqaUBKTNV-1" edge="1">
          <mxGeometry width="50" height="50" relative="1" as="geometry">
            <mxPoint x="679.5" y="1010" as="sourcePoint" />
            <mxPoint x="680" y="1030" as="targetPoint" />
          </mxGeometry>
        </mxCell>
        <mxCell id="FuKG38PKDAhsyLK60NjX-70" value="Заполнить поля, выделенные красным" style="rounded=0;whiteSpace=wrap;html=1;" parent="WIyWlLk6GJQsqaUBKTNV-1" vertex="1">
          <mxGeometry x="610" y="1030" width="140" height="50" as="geometry" />
        </mxCell>
        <mxCell id="FuKG38PKDAhsyLK60NjX-71" value="" style="endArrow=classic;html=1;rounded=0;" parent="WIyWlLk6GJQsqaUBKTNV-1" edge="1">
          <mxGeometry width="50" height="50" relative="1" as="geometry">
            <mxPoint x="610" y="1070" as="sourcePoint" />
            <mxPoint x="440" y="1070" as="targetPoint" />
          </mxGeometry>
        </mxCell>
        <mxCell id="FuKG38PKDAhsyLK60NjX-74" value="" style="endArrow=classic;html=1;rounded=0;" parent="WIyWlLk6GJQsqaUBKTNV-1" edge="1">
          <mxGeometry width="50" height="50" relative="1" as="geometry">
            <mxPoint x="650" y="259" as="sourcePoint" />
            <mxPoint x="680" y="259" as="targetPoint" />
          </mxGeometry>
        </mxCell>
        <mxCell id="FuKG38PKDAhsyLK60NjX-75" value="" style="endArrow=classic;html=1;rounded=0;" parent="WIyWlLk6GJQsqaUBKTNV-1" edge="1">
          <mxGeometry width="50" height="50" relative="1" as="geometry">
            <mxPoint x="650" y="409" as="sourcePoint" />
            <mxPoint x="680" y="409" as="targetPoint" />
          </mxGeometry>
        </mxCell>
        <mxCell id="FuKG38PKDAhsyLK60NjX-76" value="" style="endArrow=classic;html=1;rounded=0;" parent="WIyWlLk6GJQsqaUBKTNV-1" edge="1">
          <mxGeometry width="50" height="50" relative="1" as="geometry">
            <mxPoint x="650" y="489" as="sourcePoint" />
            <mxPoint x="680" y="489" as="targetPoint" />
          </mxGeometry>
        </mxCell>
        <mxCell id="FuKG38PKDAhsyLK60NjX-77" value="" style="endArrow=classic;html=1;rounded=0;" parent="WIyWlLk6GJQsqaUBKTNV-1" edge="1">
          <mxGeometry width="50" height="50" relative="1" as="geometry">
            <mxPoint x="650" y="564.5" as="sourcePoint" />
            <mxPoint x="680" y="564.5" as="targetPoint" />
          </mxGeometry>
        </mxCell>
        <mxCell id="FuKG38PKDAhsyLK60NjX-78" value="" style="endArrow=classic;html=1;rounded=0;" parent="WIyWlLk6GJQsqaUBKTNV-1" edge="1">
          <mxGeometry width="50" height="50" relative="1" as="geometry">
            <mxPoint x="650" y="639" as="sourcePoint" />
            <mxPoint x="680" y="639" as="targetPoint" />
          </mxGeometry>
        </mxCell>
        <mxCell id="FuKG38PKDAhsyLK60NjX-79" value="" style="endArrow=classic;html=1;rounded=0;" parent="WIyWlLk6GJQsqaUBKTNV-1" edge="1">
          <mxGeometry width="50" height="50" relative="1" as="geometry">
            <mxPoint x="650" y="710" as="sourcePoint" />
            <mxPoint x="680" y="710" as="targetPoint" />
          </mxGeometry>
        </mxCell>
      </root>
    </mxGraphModel>
  </diagram>
</mxfile>
